<svg version="1.2" xmlns="http://www.w3.org/2000/svg" viewBox="0 0 850 850" width="850" height="850">
	<title>notePad-svg</title>
	<style>
		.s0 { fill: #18e1eb } 
		.s1 { fill: #f9fdfe } 
		.s2 { fill: #01273c } 
	</style>
	<path id="Path 0" class="s0" d="m129.6 32.9c-3.2 0.8-8.5 2.8-11.7 4.5-3.2 1.7-8.2 5.6-11 8.6-2.8 3.1-6.8 8.6-8.8 12.4-3.5 6.6-3.6 18.5-3.6 335.4v328.6c6.4 12.1 11.4 18.4 15.3 21.9 3.9 3.5 11.7 7.7 17.3 9.3 8.8 2.5 33.6 2.9 172.6 2.9h162.3c0.1-6.8-2.5-14.9-5.6-22.4-3.2-7.5-7.1-20.5-8.8-28.8-1.7-8.3-3.1-22.1-3.1-30.7 0-8.6 1.4-22.4 3.1-30.7 1.6-8.3 6-22.1 9.7-30.7 3.7-8.6 9.6-20.4 13.1-26.3 3.4-5.9 14.6-19.1 24.8-29.3 10.2-10.2 23.4-21.4 29.3-24.8 5.9-3.5 17.7-9.4 26.3-13.1 8.6-3.7 22.4-8.1 30.7-9.7 8.3-1.7 22.3-3.1 31.2-3.1 8.8 0.1 22.2 1.4 29.7 3 7.5 1.5 15.2 2.9 17.1 2.9 3.2 0 3.4-7.6 3.4-131.7v-131.6l-129.7-1c-17.4-8.3-27.3-15.3-33.3-20.9-6.9-6.5-13.1-14.9-17-22.9l-6.2-12.6-0.1-161c-264.4 0.3-343.8 1-347 1.8z"/>
	<path id="Path 0" class="s1" d="m499.3 116.3c-0.1 30.9 0.5 61 1.2 66.9 0.9 6.7 3.6 14.3 7.3 20.3 4.2 6.8 9.1 11.3 16.6 15.6l10.8 6 106.2 1c0-8.5-17.5-30.2-66.4-87.3-47.8-55.8-67.7-77.6-71-78.1l-4.6-0.6zm94.4 415.9c-7.5 0.8-19.8 3.4-27.3 5.8-7.5 2.4-19.4 7.4-26.3 11.3-7.7 4.2-19.3 13.6-29.5 23.7-10.2 10.2-19.4 21.7-23.7 29.5-3.8 6.9-8.8 18.3-11.1 25.3-2.2 7-4.9 20.1-5.9 29.3-1 9.9-1 23.6 0 34.1 1 9.6 4.1 24.1 6.8 32.2 2.8 8 7.8 19.4 11.2 25.3 3.3 5.9 13.6 18.3 22.8 27.5 9.2 9.1 21.5 19.4 27.4 22.8 5.9 3.3 17.3 8.3 25.4 11.1 8 2.8 22.1 5.8 31.2 6.8 10 1.1 23.5 1.1 34.1 0 9.7-1 24.1-4 32.2-6.7 8-2.6 20.3-8.5 27.3-12.9 6.9-4.4 17.8-13 24.1-19 6.3-6.1 15.8-17.6 21-25.7 5.3-8 11.8-21.2 14.5-29.2 2.6-8.1 5.6-22.6 6.6-32.2 1.1-10.6 1.1-24.1 0-34.1-1-9.2-4-23.2-6.8-31.2-2.7-8.1-7.8-19.5-11.2-25.4-3.4-5.9-12.4-17.2-19.9-25-7.5-7.9-18.5-17.5-24.4-21.4-5.9-3.9-15.6-9-21.5-11.4-5.9-2.4-16-5.7-22.4-7.2-6.4-1.6-18.3-3.3-26.3-3.8-8.1-0.5-20.8-0.3-28.3 0.5z"/>
	<path id="Path 0" fill-rule="evenodd" class="s2" d="m310.9 3.9c100.8 0 184.3 0.6 185.5 1.4 1.2 0.8 45.3 51.7 193.8 224.7l-0.1 289.6 15.1 9.7c8.3 5.4 20.9 15.5 27.9 22.4 7.1 7 16.4 18 20.8 24.4 4.3 6.5 10.1 16.1 12.8 21.5 2.7 5.3 7.4 17.2 10.5 26.3 5.2 15.7 5.5 18.5 5.5 50.7 0 32.2-0.3 35-5.5 50.7-3.1 9.1-7.8 21-10.5 26.3-2.7 5.4-8.5 15-12.8 21.5-4.4 6.4-13.3 17-19.8 23.4-6.4 6.5-17 15.4-23.4 19.8-6.5 4.3-16.1 10.1-21.5 12.8-5.3 2.7-17.2 7.4-26.3 10.5-15.7 5.2-18.5 5.5-50.7 5.5-32.2 0-35-0.3-50.7-5.5-9.1-3.1-21-7.8-26.3-10.5-5.4-2.7-15-8.5-21.5-12.8-6.4-4.4-17.2-13.5-36.1-32.5l-355.8-1-11.7-5.7c-6.5-3.2-16.2-10.2-21.6-15.6-5.4-5.4-12.4-15.1-21.3-33.3v-668.8l5.3-10.8c2.9-5.8 8.1-14.1 11.7-18.3 3.5-4.2 10.3-10.3 15.1-13.5 4.9-3.3 13.2-7.5 18.6-9.4 9-3.2 22.4-3.5 193-3.5zm-188.1 36.2c-7.1 3.4-12.5 7.9-16.2 13.2-3 4.4-6.4 11.1-7.4 14.8-1.3 4.5-1.8 119.9-1.4 329.8l0.6 322.8c9.6 15.6 15.5 21.4 21.4 25.1l9.5 5.8 330.8 1c-7.5-15.9-11.5-27.5-13.9-36.1-3.3-12.4-4.2-21-4.2-41.9 0-20.7 0.9-29.7 4.2-41.9 2.2-8.6 8-23.5 12.7-33.2 4.7-9.6 13.8-24.1 20.2-32.2 6.5-8 18.2-19.7 26.1-26 7.9-6.3 22.3-15.3 31.9-20 9.7-4.7 24.2-10.3 32.2-12.3 8-2 22.1-4.3 31.2-5.1 9.4-0.7 22.9-0.4 31.2 0.8 8 1.1 17.5 2.8 21 3.6l6.4 1.5-0.1-256.4c-123-1-126.3-1.2-136.5-5.4-5.9-2.4-14.9-7.5-20-11.2-5.1-3.7-12.1-11-15.5-16.1-3.4-5.1-8-13.6-10.2-19-3.8-9.2-4.1-14.2-4.5-88.2l-0.5-78.5h-338.3zm385.9 154.7c2.6 4.9 7 10.9 9.7 13.4 2.8 2.5 8.6 6.4 12.8 8.7 7.3 3.9 11.3 4.2 57.1 4.7 27.1 0.3 49.2 0.1 49.2-0.4 0-0.6-29.1-35-64.6-76.6-35.6-41.5-65.9-76.9-67.4-78.5-2.4-2.5-2.7 5.3-2.2 58.5 0.7 60.6 0.7 61.6 5.4 70.2zm59.6 347.8c-8.7 2.8-22.1 9.3-30.2 14.6-8.1 5.3-19.6 14.8-25.7 21.1-6.1 6.3-14.6 17.1-19.1 24.1-4.4 7-10.2 19.2-12.9 27.3-2.6 8-5.5 21.6-6.3 30.2-0.9 8.6-0.9 22.2-0.1 30.2 0.8 8.2 4.1 22 7.5 31.2 3.3 9.2 8.8 21 12.2 26.4 3.4 5.3 11.5 15.3 18 22.2 6.5 6.9 18.3 16.8 26.4 22 8 5.2 21.2 11.7 29.2 14.4 8.1 2.7 21.2 5.5 29.3 6.4 8 0.8 21.6 0.8 30.2 0 8.6-0.9 22.2-3.7 30.2-6.4 8.1-2.7 20.3-8.5 27.3-12.9 7-4.5 17.8-13 24.1-19.1 6.3-6.1 15.8-17.6 21.1-25.7 5.2-8 11.7-21.2 14.4-29.2 2.7-8.1 5.6-21.7 6.4-30.2 0.8-8.6 0.8-22.2 0-30.3-0.8-8-3.7-21.2-6.4-29.2-2.7-8.1-8.5-20.3-12.9-27.3-4.4-7-13-17.8-19.1-24.1-6-6.3-17.6-15.8-25.6-21.1-8.1-5.2-21.2-11.7-29.3-14.3-8-2.7-19-5.3-24.4-5.9-5.3-0.6-12.3-1.3-15.6-1.6-3.2-0.3-11.9 0.1-19.5 0.8-7.5 0.7-20.6 3.6-29.2 6.4zm-284.2-320.3c60.6-0.1 81.6 0.4 85.3 2.3 2.7 1.3 5.9 4.6 7.1 7.3 1.6 3.5 1.6 6.4 0 10.7-1.2 3.2-4.4 7-7.1 8.3-3.7 1.8-24.8 2.4-84.8 2.4-60.1 0-81.2-0.6-84.9-2.4-2.7-1.3-5.9-5.1-7.1-8.3-1.5-4.2-1.5-7.2 0-10.7 1.2-2.7 4.2-5.9 6.6-7.2 3.2-1.7 27-2.3 84.9-2.4zm93.6 93.6c135.5-0.1 175.1 0.4 178.9 2.3 2.7 1.3 5.9 4.6 7.1 7.3 1.6 3.5 1.6 6.4 0 10.7-1.2 3.2-4.4 7-7.1 8.3-3.8 1.9-43.5 2.4-178.4 2.4-135 0-174.7-0.5-178.5-2.4-2.7-1.3-5.9-5.1-7.1-8.3-1.5-4.2-1.5-7.2 0-10.7 1.2-2.7 4.2-5.9 6.6-7.2 3.3-1.7 48.6-2.3 178.5-2.4zm0 93.6c135.5-0.1 175.1 0.4 178.9 2.3 2.7 1.3 5.9 4.6 7.1 7.3 1.6 3.5 1.6 6.4 0 10.7-1.2 3.2-4.4 7-7.1 8.3-3.8 1.9-43.5 2.4-178.4 2.4-135 0-174.7-0.5-178.5-2.4-2.7-1.3-5.9-5.1-7.1-8.3-1.5-4.2-1.5-7.2 0-10.7 1.2-2.7 4.2-5.9 6.6-7.2 3.3-1.7 48.6-2.3 178.5-2.4zm234.5 187c8.6 0.1 9.1 0.4 34.5 25.9 23.8 23.8 25.8 26.4 25.9 33.1 0 5.2-1.4 8.7-4.8 12.2-3.3 3.4-6.9 4.9-11.7 4.9-5.5 0-9-1.9-28.3-19.5v45.8c0 43.2-0.3 46.1-3.9 49.7q-3.9 3.9-11.7 3.9-7.8 0-11.7-3.9c-3.7-3.6-3.9-6.5-3.9-95.5l-10.8 9.7c-8.5 7.8-12 9.8-17.5 9.8-4.7 0-8.4-1.5-11.7-4.9-3.7-3.7-4.8-6.6-4.4-12 0.4-6.2 3.6-10.3 25.9-33.1 25.1-25.8 25.4-26.1 34.1-26.1z"/>
</svg>