<svg version="1.2" xmlns="http://www.w3.org/2000/svg" viewBox="0 0 1024 1024" width="1024" height="1024">
	<title>TableIcon-svg</title>
	<style>
		.s0 { fill: #e34603 } 
		.s1 { fill: #fbe8d9 } 
		.s2 { fill: #f56a0d } 
		.s3 { fill: #fe8f01 } 
		.s4 { fill: #f4b176 } 
		.s5 { fill: #f2f2f0 } 
		.s6 { fill: #011a34 } 
	</style>
	<path id="Path 0" class="s0" d="m82.9 812.9c-5.7 0.6-11.9 2.1-13.8 3.3-1.9 1.2-5.4 5.1-7.7 8.5-3.9 5.8-4.4 8.3-4.9 27-0.3 11.4 0.3 27.2 1.4 35.3 1.1 8 3.1 17.9 4.4 21.9 1.4 4 4.9 11.8 7.9 17.2 2.9 5.4 7.5 12.6 10.1 15.9 2.6 3.3 10 10.3 16.5 15.5 6.5 5.2 13.4 10.4 15.3 11.5 1.9 1.2 6.9 3.7 11.2 5.7 4.2 2 11.6 4.7 16.3 6.1 7.5 2.2 57.7 2.5 370.7 2.5 347.3 0 362.5-0.1 373.2-3.2 6.2-1.8 15.5-5.3 20.7-7.8 5.2-2.6 12.1-7 15.4-9.8 3.4-2.8 8.8-7.7 12.1-10.8 3.3-3.1 8.8-9 12.2-13.2 3.4-4.2 8-11.2 10.1-15.4 2.2-4.3 5.5-12 7.3-17.2 2.5-7.1 3.5-16.5 4.3-37.9 0.9-23.7 0.7-29.6-1.7-36.1-1.5-4.2-5.3-10.1-8.5-13-5.5-5.1-6.3-5.3-27.2-6.4-11.8-0.7-204.5-1.1-428.2-1-223.8 0.2-411.5 0.8-417.1 1.4z"/>
	<path id="Path 0" class="s1" d="m149.1 305.9c-1.9 1.6-2.4 7-2.1 23.7 0.2 18.2 0.7 22 3.3 24.5 2.8 2.7 8.5 3 59.9 3.1 43.3 0 57.4-0.5 59-2.1q2.1-2.2 2.1-22c0-19.3-0.1-19.9-4.8-24.5l-4.8-4.7c-95.5 0-110.9 0.5-112.6 2zm240.8 0c-1.9 1.6-2.4 6.8-2.2 22l0.3 19.8 12.2 9.5c79.2 0 91-0.5 92.6-2.1 1.4-1.5 2-8.7 2-22-0.1-19.2-0.2-19.9-4.8-24.5l-4.7-4.8c-80.1 0.1-93.7 0.7-95.4 2.1zm221.9 0c-1.9 1.6-2.4 6.8-2.1 22 0.3 19.2 0.4 20 5 24.5l4.8 4.7c81.5 0.1 93.6-0.4 95.1-2q2.1-2.2 2.1-21.5c0-18.1-0.3-19.7-4.3-24.6l-4.3-5.1c-81 0-94.6 0.5-96.3 2zm214.8 0.4c-1.8 1.8-2.1 7.3-1.5 22.7 0.8 19.6 1 20.4 5.1 22.6 2.4 1.2 5.1 2.9 6 3.9 1.1 1.1 22 1.7 57.7 1.7 42.5 0 56.5-0.5 58.1-2.1q2.1-2.2 2.1-21.5c-0.1-19.2-0.1-19.4-5.2-24.6l-5.2-5.1c-104.2 0-115.3 0.4-117.1 2.4zm-627.6 169.1c-33.9 0.4-48 1.2-49.6 2.7-1.6 1.5-2.2 8.3-2.1 24.4 0 15.7 0.7 23 2.2 24.6 1.7 1.7 15.6 2.2 59.9 2.1 43.8 0 58.2-0.5 59.8-2.1 1.4-1.5 2-8.8 2-22.4 0-18.5-0.3-20.6-3.9-24.7-3.1-3.6-5.6-4.6-12.4-4.8-4.8-0.2-29.9-0.1-55.9 0.2zm681.9 0c-37.2 0.5-52.2 1.2-53.8 2.7-1.7 1.6-2.1 7.4-1.7 23.4l0.5 21.4c9.8 5.7 16.3 6.1 67.1 6.3 44.4 0.1 57.2-0.3 58.9-2.1 1.6-1.6 2.1-8 1.8-23.2-0.5-18.3-1-21.5-4-24.6-2.1-2.1-6.1-3.7-10.3-4-3.8-0.3-30.1-0.2-58.5 0.1zm-731.8 174.5c-1.9 1.7-2.4 7.4-2.1 26.3 0.2 16.8 1 24.8 2.5 26.3 1.7 1.7 15.6 2.2 59.9 2.2 43.8-0.1 58.2-0.6 59.8-2.2 1.4-1.5 2-9.2 2-24.1v-21.9l-10.3-8.6c-94.8 0-110.1 0.5-111.8 2zm240.8 0c-1.9 1.7-2.4 7.2-2.1 25l0.4 22.9c10 6.6 13.1 6.8 56.4 6.8 34.6 0 46.6-0.5 48.2-2.1 1.4-1.5 2-9.2 2-24.1 0-21.1-0.2-22.1-4.3-26.2l-4.3-4.3c-81 0-94.6 0.5-96.3 2zm221.9 0c-1.9 1.7-2.4 6.9-2.1 24.6 0.2 20.8 0.5 22.7 4.2 26.2 3.8 3.8 4.7 3.9 51.2 4 36.5 0.1 47.8-0.4 49.5-2.1 1.6-1.7 2-8.4 1.7-25-0.4-19.1-1-23.2-3.5-25.8-2.8-2.8-7.8-3.1-50.8-3.6-36.1-0.3-48.3 0-50.2 1.7zm214.8 0.4c-1.7 1.8-2.1 7.7-1.5 25.2l0.8 22.8c9.8 5.8 16.2 6.1 67.2 6.2 43.3 0.1 57.3-0.4 58.9-2 1.4-1.5 2.1-9 2.1-23.2l-0.1-21.1-10.3-10.3c-104.2 0-115.3 0.4-117.1 2.4zm-401.5-174.8c-22.4 0.4-33.3 1.2-34.9 2.6-1.6 1.5-2.2 8-2.1 23.2l0.1 21c10 6.7 13.2 6.9 56.3 7 35.6 0 46.4-0.5 47.9-2.2 1.1-1.2 2.4-9.9 2.9-19.4 0.6-11 0.2-19.4-1.1-23.2-1.1-3.3-3.9-6.9-6.3-8.1-2.5-1.3-9.5-2-17.2-1.8-7.1 0.2-27.6 0.6-45.6 0.9zm186.7 2.4c-1.9 1.6-2.4 6.9-2.1 22.8 0.2 19.1 0.6 21.1 4.2 24.6 3.8 3.8 4.6 3.8 51.3 3.9 35.7 0 47.9-0.5 49.4-2.1q2.1-2.2 2.2-22c0-17.2-0.5-20.4-3.5-24.5l-3.5-4.7c-82.5 0-96.3 0.5-98 2z"/>
	<path id="Path 0" class="s2" d="m68.6 347.3c-1 1.2-1.9 8-2 15.1-0.1 7.1 0.4 26.8 1 43.8 1.2 29.4 1.4 31.2 5.2 34.9 3.9 3.7 5 3.8 41.5 3.8 27.8 0 38.1-0.5 39.6-2.1 1.6-1.6 2.1-14.3 2.1-47.8 0-34.5-0.5-46.1-2.2-47.7-1.6-1.7-12.2-2.2-42.8-2.2-30.4 0.1-41.1 0.6-42.4 2.2zm236.8 0.7c-1.9 2.2-2.4 12.1-2.4 45.7v42.9c9.5 8.3 9.5 8.3 52.1 8.3 31.9 0 43.2-0.5 44.8-2.1 1.5-1.6 2.1-14.3 2.1-47.8 0-34.5-0.6-46.1-2.2-47.7-1.6-1.7-13.1-2.2-47.1-2.2-39.8 0.1-45.3 0.4-47.3 2.9zm222.1-0.8c-2 1.7-2.4 10.2-2.1 46.5l0.4 44.3c9.1 6.8 11.8 7 50.8 7 30.8-0.1 41.9-0.6 43.4-2.2 1.6-1.6 2.1-14.3 2.1-47.8 0-34.5-0.5-46.1-2.1-47.7-1.7-1.7-13-2.2-46.2-2.2-31.6 0.1-44.6 0.6-46.3 2.1zm220.1 0c-1.9 1.7-2.3 10-2 44.7l0.3 42.7 8.6 10.3c71.4 0 82.4-0.5 84-2.1 1.5-1.6 2.1-14.3 2.1-47.8 0-34.5-0.6-46.1-2.2-47.7-1.6-1.7-12.8-2.2-45.3-2.2-31 0.1-43.7 0.6-45.5 2.1zm-678.8 175.9c-2.7 3.8-2.9 8.3-2.2 45.8l0.8 41.5c10.2 8.2 10.8 8.2 47.4 8.2 27.4 0 37.6-0.5 39.1-2.1 1.6-1.6 2.1-14.3 2.1-47.7 0-34.5-0.5-46.2-2.2-47.8-1.6-1.6-12.1-2.2-42.1-2.1h-40zm236.9-1.9c-1.6 1.7-2.2 13.8-2.4 45.4l-0.2 43.1 8.6 9c75.2-0.1 86.7-0.6 88.3-2.3 1.5-1.5 2.1-14.2 2.1-47.7 0-34.5-0.6-46.1-2.2-47.7-1.7-1.7-13.1-2.2-47.2-2.2-35.7 0-45.3 0.5-47 2.4zm221.9-0.3c-2 1.7-2.4 10.1-2.2 45.2 0.3 40.3 0.5 43.3 3.8 47.8l3.5 4.7c74.5 0 85.9-0.5 87.4-2.2 1.6-1.5 2.1-14.2 2.1-47.7 0-34.5-0.5-46.1-2.2-47.7-1.6-1.7-12.9-2.2-46.1-2.2-31.6 0-44.6 0.6-46.3 2.1zm219.9 0.4c-1.8 1.9-2.1 10.9-1.5 45.4l0.9 43 8.6 9c70.6-0.1 81.5-0.7 83.1-2.3 1.5-1.5 2.1-14.2 2.1-47.7 0-34.5-0.6-46.1-2.2-47.7-1.7-1.7-12.8-2.2-45.4-2.2-35 0-43.7 0.5-45.6 2.5zm-677.4 175.2c-1.4 1.6-2.2 13.3-2.6 37.4-0.2 19.4 0 39.4 0.6 44.5 0.9 8 1.8 9.8 6.2 12.5 4.7 2.8 9 3.1 40.6 2.7 28.6-0.3 36-0.9 38.4-3 2.6-2.3 2.9-7.4 2.9-47.3-0.1-33.7-0.6-45.3-2.3-46.9-1.6-1.6-12.1-2.2-42-2.1-30.5 0-40.2 0.5-41.8 2.2zm233.9-0.2c-2 1.7-2.4 9.3-2.1 40 0.2 20.9 1 41 1.7 44.7 0.7 3.7 2.8 7.7 4.7 9 2.5 1.7 14.6 2.5 46.4 3 31.4 0.6 43.6 0.2 45.2-1.2 1.8-1.6 2.2-12.5 2.2-47.6 0-34.5-0.6-46.2-2.2-47.8-1.7-1.7-13.3-2.2-47.9-2.1-33 0-46.3 0.6-48 2zm223.9 0.1c-1 1.3-2 19-2.3 43.8l-0.6 41.6 10.3 10.6c72.2-0.1 83.3-0.6 84.8-2.2 1.6-1.6 2.1-14.1 2.1-46.9 0-33.8-0.5-45.3-2.2-46.9-1.6-1.6-12.9-2.2-46.2-2.1-33.2 0-44.6 0.5-45.9 2.1zm219.6 0.3c-1.8 2-2.1 10.8-1.5 44.7l0.9 42.2 9.5 9.6c67.8-0.9 80.6-1.7 82.1-3.1 1.7-1.6 2.2-12.4 2.2-46.8 0-33.7-0.6-45.3-2.2-46.9-1.7-1.6-12.8-2.2-45.4-2.1-35 0-43.7 0.4-45.6 2.4z"/>
	<path id="Path 0" class="s3" d="m149.1 394.2v43.8c6.7 0 8.2 1.4 9.4 5.6 1 3 4.1 7.2 6.9 9.1 4.2 2.9 7.9 3.7 18.9 3.8 7.6 0 19.8 1.3 27.1 2.9 7.4 1.5 18.4 2.7 24.5 2.7 6.2 0 13.3-1 16-2.4 2.6-1.3 8.2-4.6 12.4-7.4 4.3-2.9 9.5-7.4 11.7-10.1 2.2-2.8 3.9-7 3.8-9.3-0.1-2.4-1.2-6.3-2.6-8.6-1.3-2.4-2.5-7.2-2.5-10.8 0-3.5 0.8-8.2 1.9-10.3 1.1-2.1 3.1-8.1 4.5-13.3 1.4-5.2 2.8-11.8 3.1-14.6 0.2-2.9-0.5-7.5-1.6-10.4-1.2-2.8-4-6.5-6.3-8.1-2.4-1.7-6-3.1-8.1-3.1-2.1 0.1-3.9-0.7-3.9-1.7 0-1.1-20.3-1.7-57.6-1.7h-57.6zm246.2 3c0.5 39.4 1.1 47.7 3.4 52.1 1.5 2.8 4.8 6.1 7.3 7.3 3.2 1.5 16.7 2.1 47.7 2.1h43.2c9.6-9.9 11.7-13.7 11.6-16.7 0-2.7-1.7-7.9-3.9-11.7-2.1-3.7-6.4-8.4-9.4-10.3l-5.4-3.4-0.2-66.2h-94.8zm219.8-3c0 28 0.7 43.8 1.8 43.8 0.9 0 2.8 2.7 4.3 6 1.4 3.3 4.3 7.1 6.4 8.5 3 1.9 13.1 2.5 46 2.8 23.2 0.2 43.6 0.3 45.3 0.2 1.7-0.2 4.9-2.2 7.3-4.6 3.2-3.3 4.2-6.1 4.2-12 0-6.5-0.8-8.5-5.2-12.1-2.8-2.3-7.3-4.3-9.9-4.3h-4.7l0.5-72.2h-96zm218.5-1.3c0 23.4 0.7 45.3 1.6 48.6 0.9 3.3 3.7 7.9 6.2 10.3l4.5 4.3 108.1 0.9c8.9-9 10.3-12 10.3-16.4 0-3.8-1.5-7.7-4-10.7-2.2-2.6-6.1-5.3-8.6-6l-4.6-1.3v-72.3h-113.5zm-684.6 174.2v44.7l97.2-0.1c4 8.5 6.7 12 8.6 13.3 1.9 1.3 6.3 2.3 9.9 2.3 4.3 0 8-1.4 11.2-4.2 3.9-3.5 4.9-6.1 5.9-15.9 0.7-6.5 2-17.5 3-24.6 0.9-7.1 1.7-18.6 1.7-25.4 0.1-11.6-0.2-12.8-5-17.6q-5.2-5.2-10.4-5.2c-4.7 0-5.1-0.5-5.1-6v-6h-117zm0 174.5c0 35.2 0.5 45.1 2.6 49.9 1.4 3.3 4.3 7.2 6.4 8.7 3.1 2.1 14.2 3 54.7 4.5 43.7 1.6 51.4 1.5 55.9-0.7 2.8-1.4 6.2-5.1 7.6-8.4 1.4-3.2 5.1-8.1 8.2-11l5.7-5.1-0.9-66.2c-8.4-8.3-11.2-9.5-16.4-9.5-5.3 0-6.8-0.6-6.8-3 0-2.8-4-3-58.5-3h-58.5zm246-169.4c0 29.8 0.7 51.2 1.7 53.3 0.9 1.9 3.5 4.3 5.6 5.5 2.6 1.4 17.9 2.1 48.6 2.4 24.6 0.2 46-0.3 47.7-1.2 1.7-0.9 5-6 7.5-11.4l4.5-9.9c-5.5-14.7-7.7-23.6-8.3-29.3-1-8.6-2.2-11.2-7-15.9-5.4-5.3-5.7-6.2-5.7-18-0.1-6.9-0.6-15.4-1.3-19l-1.3-6.5-92 0.1zm220.1-5.2v44.7c79.2 0 91-0.5 92.6-2.1 1.5-1.6 2.1-13.6 2.1-44.7l-0.1-42.6h-94.6zm218.5 0v44.7c101-0.8 110.4-1.3 112.7-3.4 2.4-2.3 2.6-7.2 1.3-44.3l-1.4-41.7h-112.6zm-438.6 181c0 45.3 0.3 50.7 3 54.5 1.6 2.3 5.3 5.1 8.2 6.1 3.2 1.3 18.6 1.9 42.1 1.8 30.3-0.1 37.8-0.6 41.3-2.8 2.3-1.5 6.4-6.3 9-10.7 2.6-4.4 4.7-10.4 4.7-13.2 0-3-1.8-7.3-4.3-10.3-2.3-2.9-5.4-5.2-6.8-5.2-2.2 0-2.6-4.8-2.6-32.7 0-17.9-0.4-33.8-0.9-35.2-0.7-2.2-7.5-2.6-47.3-2.6h-46.4zm220.4 0c0.5 35.5 1.3 51.5 2.8 54.2 1.2 2.1 4.6 4.9 7.7 6.2 4.3 1.8 16.1 2.3 51.2 2.1 32-0.2 46.7-0.9 49.4-2.4 2.1-1.1 4.7-3.6 5.6-5.5 1-1.9 1.8-6.3 1.8-9.9 0-4.8-1.2-7.6-4.7-11.2-3.8-3.8-6.4-4.8-12.1-4.8l-7.4 0.1v-79.1h-94.9zm218.1-6.5c0 37.9 0.4 43.9 2.6 43.9 1.9 0 2.4 1.2 1.7 4.3-0.4 2.4 0.4 7 1.8 10.3 1.6 3.9 4.6 6.9 8.1 8.4 4.4 1.9 17.2 2.5 56.8 2.6l51.2 0.2c9.1-9.2 10.3-11.8 10.3-17.2 0-5-1.2-8-4.3-11.2-2.4-2.3-6.7-4.9-9.5-5.6l-5.2-1.3 0.1-78.2h-113.6z"/>
	<path id="Path 0" class="s4" d="m81.3 307.9c-2.7 0.4-5.2 1.6-7 3.4l-2.8 2.7c-0.6 28.9-0.4 32.8 0.7 33.7 0.9 0.8 9 1.2 27.8 1.3 14.6 0.1 32.8 0.6 40.5 1.1 12.7 0.8 14.2 0.7 15.8-0.9 1.6-1.5 1.8-3.8 1.7-20.7 0-14-0.3-19.3-1.2-20.3-1-0.9-9.2-1.2-36.3-1.1-19.3 0.1-36.9 0.4-39.2 0.8zm237 0c-4.1 0.5-5.9 1.3-8.5 3.9l-3.3 3.3c0.5 26.4 0.9 31.8 1.8 32.7 0.9 1 10.4 1.3 44.7 1.2 33.5 0 43.9-0.3 44.8-1.2 0.9-0.9 1.2-6.6 1.2-19.8 0-13.6-0.3-18.8-1.2-19.8-1-0.9-9.5-1.2-37.8-1.1-20.1 0.1-38.9 0.5-41.7 0.8zm221-0.2c-3.2 0.3-4.9 1.2-7.5 3.9l-3.3 3.5c0 27.8 0.3 31.1 1.5 32.4 1.3 1.3 8 1.6 44.6 2.2 37.6 0.7 43.3 0.6 44.8-0.7 1.5-1.3 1.7-3.9 1.7-20.5-0.1-14-0.4-19.3-1.3-20.3-1-1-9.7-1.2-38.8-1-20.6 0.1-39.4 0.3-41.7 0.5zm220.7 0c-1.9 0.3-4.3 1.2-5.4 2.1-1 0.9-2.5 3.1-3.4 4.7-1.2 2.2-1.7 6.6-1.9 17.5-0.3 10.9-0.1 14.8 0.9 15.8 1 1 10 1.3 42.3 1.2 31.5 0 41.4-0.3 42.3-1.2 0.9-0.9 1.2-6.6 1.2-19.8 0-13.6-0.3-18.8-1.2-19.8-1-0.9-9.2-1.2-36.3-1.1-19.2 0.1-36.6 0.4-38.5 0.6zm-680.7 170.9c-1.2 0.3-3.5 1.9-5 3.5l-2.8 3c-0.5 30.9-0.2 35.7 0.7 36.7 1 1 7.8 1.3 30.3 1.3 16-0.1 34.2 0.4 40.5 0.9 10.4 0.9 11.7 0.8 13.3-0.8 1.6-1.5 1.8-3.8 1.8-21.7 0-15.1-0.3-20.3-1.3-21.2-0.9-0.8-11.7-1.3-38.3-1.7-20.3-0.3-38-0.3-39.2 0zm229.9 1.7c-0.6 0.6-1.6 4.3-2.2 8.2-0.8 4.4-1 11.5-0.6 19.5 0.4 7.9 1.1 13 1.9 13.8 0.9 1 10.4 1.3 44.8 1.2 33.4 0 43.8-0.3 44.7-1.2 0.9-0.9 1.2-6.8 1.2-20.8 0-14.4-0.3-19.8-1.2-20.8-1-1-10.9-1.2-44.4-1.2-33.3 0-43.4 0.3-44.2 1.3zm228.6-0.6c-2.1 0.2-4.6 1.4-5.8 2.6-1.5 1.6-2.3 4.3-3 9.7-0.5 4.1-0.6 12.4-0.2 18.3 0.4 6 1.2 11.2 1.7 11.7 0.5 0.4 20.6 1 44.5 1.3 33.9 0.5 43.8 0.4 44.8-0.6 1-0.9 1.3-6.1 1.3-21.2-0.1-14.8-0.4-20.3-1.3-21.3-1-1-9.9-1.2-39.8-1-21.2 0.1-40.2 0.3-42.2 0.5zm214.8 1.6c-0.8 1.2-2 4.2-2.5 6.7-0.6 2.5-1.1 10.8-1.1 18.5 0 10 0.3 14.4 1.2 15.3 1 0.9 10.5 1.2 42.3 1.2 31.6 0 41.4-0.3 42.3-1.2 0.9-0.9 1.2-6.8 1.2-20.8 0-14.4-0.3-19.8-1.2-20.8-1-0.9-10.3-1.2-41-1.2h-39.8zm-672.2 170.5c-2 0.2-4.4 1.6-6 3.4l-2.8 3c-0.7 33.4-0.4 37.6 0.6 38.5 0.9 0.7 12.8 1.3 36.9 1.6 24.9 0.4 36.9 1 40.3 1.9 4.7 1.3 4.9 1.3 6.8-1.1 1.8-2.4 1.9-4.2 1.9-24 0-16-0.3-21.9-1.3-22.8-1-1-9.3-1.2-37.2-1.1-19.8 0.1-37.5 0.3-39.2 0.6zm237.9 0.2c-5.7 0.4-7.7 1-9.5 2.8-2.2 2.3-2.2 2.7-2 21.5 0.2 13.7 0.6 19.6 1.5 20.5 1 1.1 10.4 1.3 44.8 1.3 33.5 0 43.8-0.3 44.8-1.3 0.9-0.9 1.2-7.1 1.2-22.2 0-15.7-0.3-21.4-1.3-22.3-1-1-9.2-1.2-36.7-1.1-19.6 0.1-38.8 0.4-42.8 0.8zm221.1-0.2c-3.2 0.3-5 1.2-7.5 3.9l-3.3 3.5c0 32.4 0.2 36.1 1.5 37.4 1.3 1.4 6.9 1.7 44.6 2.3 37.5 0.6 43.3 0.5 44.8-0.8 1.5-1.4 1.6-4.1 1.6-23 0-16-0.3-21.9-1.3-22.8-1-1-9.6-1.2-38.7-1.1-20.7 0.1-39.4 0.4-41.7 0.6zm220.5 0c-2.5 0.2-4.6 1.3-6.5 3.4-1.9 2-3.1 4.6-3.5 7.7-0.4 2.6-0.8 10.9-0.8 18.7 0 10 0.3 14.3 1.2 15.2 1 1 10.5 1.3 42.3 1.3 31.5 0 41.3-0.3 42.3-1.3 0.9-0.9 1.2-7.1 1.2-22.2 0-15.7-0.3-21.4-1.3-22.3-1-1-9.1-1.2-36.2-1.1-19.3 0.1-36.7 0.4-38.7 0.6z"/>
	<path id="Path 0" class="s5" d="m159.5 45.1c-11 0.5-15.5 1.2-21 3.2-3.8 1.3-10.4 4.1-14.5 6.2-4.1 2.1-10.9 6-15 8.8-4.1 2.7-9.9 7.1-12.9 9.6-3 2.5-8 7.8-11.1 11.6-3.1 3.8-7.5 9.9-9.8 13.5-2.2 3.6-6 10.5-8.3 15.5-2.3 5-4.5 11.5-5 14.5-0.5 3-1.4 16.3-2 29.5-0.6 13.2-0.9 43.6-0.7 67.5l0.3 43.5c3.9 6.1 6.6 8.9 8.5 10.2l3.5 2.3 879-0.1c5.3-3.4 7.9-6 9.2-7.9l2.3-3.5c-0.1-63.6-0.5-94.6-1-110-0.7-26.6-0.9-28.4-3.5-36.5-1.5-4.7-3.5-10.3-4.5-12.5-0.9-2.2-4.3-8-7.6-13-3.2-4.9-9.5-12.7-13.9-17.4-4.4-4.6-11.4-11.1-15.5-14.4-4.1-3.3-11.9-8.2-17.2-10.8-5.4-2.7-13.2-6.3-17.3-7.9l-7.5-3c-542.9 0.2-706.8 0.7-714.5 1.1z"/>
	<path id="Path 0" fill-rule="evenodd" class="s6" d="m509.4 3.1c219.8-0.1 349.6 0.4 359.5 1.5 8.5 1 20.9 3.4 27.5 5.4 6.6 1.9 17.1 6.1 23.2 9.2 6.2 3.1 15.9 9.1 21.5 13.4 5.7 4.2 15.4 13.1 21.5 19.6 6.2 6.6 14.5 17.4 18.5 23.9 4 6.6 9.2 16.8 11.6 22.7 2.4 5.9 5.5 17.5 6.9 25.8 2.3 13.2 2.6 61.8 2.1 395.1-0.4 352.2-0.7 380.9-3.4 389.6-1.6 5.2-5.3 15.7-8.3 23.2-2.9 7.6-9.1 19.2-13.6 25.8-4.6 6.7-12.9 16.4-18.4 21.6-5.5 5.3-14.6 12.7-20.3 16.5-5.7 3.8-16.5 9.5-24.1 12.6-7.5 3.1-18.8 6.7-24.9 8-9.3 1.9-74.8 2.3-377.6 2.4-262.8 0-369.2-0.5-376.6-1.9-5.7-1.1-16.6-4.3-24.1-7.2-7.6-3-19.2-9.1-25.8-13.6-6.6-4.5-14.4-10.3-17.2-13-2.9-2.6-9.6-9.9-15.1-16.3-5.6-6.6-13.2-18.6-17.6-27.5-5.2-10.6-8.9-21.6-11.2-32.7-3.4-16.5-3.4-23-2.6-784.8l3.9-12.4c2.1-6.9 6.7-17.7 10.1-24.1 3.4-6.4 8.7-15.1 11.8-19.4 3.2-4.2 11-12.9 17.5-19.3 6.5-6.4 15.3-14 19.5-16.9 4.3-2.9 11.4-7.1 15.9-9.5 4.5-2.3 8.2-3.6 8.2-2.9 0 0.7 0.6 0.5 1.3-0.4 0.7-1 3.2-2.7 5.6-3.7 2.3-1.1 9.3-3.3 15.5-4.9 6.1-1.6 16.6-3.5 23.2-4.3 6.6-0.7 166.8-1.4 356-1.5zm-366.3 60.4c-3.8 1.4-10.8 4.5-15.5 6.9-4.7 2.4-13.1 7.9-18.5 12.3-5.4 4.3-13.1 12.7-17.1 18.7-3.9 5.9-8.6 13.8-10.3 17.6-2.8 6.2-3.1 13.3-3.1 77v70h865.1c0.8-122.1 0.5-131-2.1-140.1-1.6-5.7-6-15-9.8-20.7-3.7-5.7-10.5-13.9-15.1-18.4-4.5-4.4-12.9-10.8-18.6-14.2-5.6-3.4-15.3-7.8-21.5-9.7-11-3.5-14.3-3.5-348.3-3.8-185.4-0.2-346.4 0.2-357.7 0.8-11.4 0.6-23.8 2.2-27.5 3.6zm-64.8 311.2c0.2 47.3 0.8 61.9 2.4 62.7 1.2 0.6 42.4 1 91.6 0.9l89.4-0.2c4.6-7 5-14 4.7-38.8-0.2-17-0.9-42.5-1.4-56.7-0.9-20.5-1.7-26.5-3.9-28.9-2.6-2.9-8.6-3-91.5-3-48.8 0-89.4 0.6-90.2 1.2-0.8 0.6-1.3 28.9-1.1 62.8zm231.9-30.1c-0.6 15.9-1.2 40.9-1.2 55.6 0 14.7 0.8 29.2 1.7 32.3l1.8 5.5c63.3 0.1 101 0.2 124.7 0.2 23.6 0.1 43.9 0 45.1 0 1.7-0.1 2.1-13.8 1.8-63.4l-0.5-63.2c-154.2-0.8-167.8-0.5-169.8 1.6-1.7 1.7-2.7 10.3-3.6 31.4zm221.2 29c-1.1 56.6-1.1 56.7 2.7 60.6l3.7 3.8c129.3 0 168-0.3 169.4-0.8 2.2-0.8 2.6-9.1 2.7-60.6 0-55.2-0.2-60.1-3.1-62.8-2.8-2.7-9.8-3-85.8-3-77.1 0-82.9 0.2-85.7 3-2.6 2.8-3 9.4-3.9 59.8zm224-58.9c-2.2 3.3-2.6 12.5-2.6 60.2 0 42 0.5 57.1 2.2 59.7 2 3.3 4.4 3.4 89.8 3.9 48.3 0.2 90.3 0.2 93.3 0l5.6-0.5-0.8-126.4-184.8-0.9zm-676.8 232.7l0.8 63.5c177.4 0.9 183.2 0.7 184.4-2.1 0.7-1.7 1.3-29.5 1.3-61.9 0-54.2-0.2-59-3.1-61.9-2.8-2.8-8.8-3.1-91.7-3.1-48.8 0-89.5 0.5-90.5 1-1.3 0.7-1.7 20.1-1.2 64.5zm233.1-61.5c-0.7 1.6-1.7 29.2-2.3 61.4-0.8 52.7-0.6 58.8 1.9 61.5 2.6 2.8 9.1 3 88 3h85.1l-0.8-129.9c-128 0-166.4 0.3-167.9 0.6-1.5 0.3-3.3 1.8-4 3.4zm223-1c-1.6 1.7-2.2 16.9-2.6 61.7-0.3 50.8 0 59.9 2.2 62.4 2.4 2.8 9.3 3 88.1 2.9 74.5-0.1 85.7-0.4 86.5-2.7 0.5-1.4 0.9-29.1 0.9-61.5 0-48.5-0.4-59.5-2.5-62.3-2.3-3.3-4.4-3.5-43.4-3.5-22.6 0-60.4 0.2-84 0.4-32.3 0.3-43.6 0.9-45.2 2.6zm220.2 1.2c-1.5 2-2.1 17.9-2.2 60.3-0.1 53 0.1 58 3 61.6l3.1 3.9 184-1 0.9-129c-141.3 0-183.3 0.4-184.5 0.8-1.2 0.3-3.1 1.9-4.3 3.4zm-676.7 235.2c0.3 59.5 0.5 64.3 3.3 65.2 1.7 0.5 43.1 0.9 92 0.8l89-0.1c3.6-9.7 3.8-26.3 3-68.8-1-52.2-1.4-57.9-4.2-60.6-2.9-2.9-8.9-3.1-91.8-3-48.8 0-89.4 0.5-90.1 1.2-0.8 0.6-1.3 30-1.2 65.3zm231.1-8c-0.4 29.8-0.3 57.7 0.3 61.9 0.8 6.3 1.9 8.2 5.8 9.9 3.7 1.7 23.5 2.1 86.5 1.7l81.7-0.4v-130.7c-149.5-0.8-167.6-0.5-170.2 1.3-3 2.1-3.3 5.8-4.1 56.3zm223.1-52.8c0 0.2-0.4 24.7-1 54.5-0.6 29.8-0.5 57.1 0.1 60.6 0.8 4.9 2.3 7.1 6.2 9.1 4.4 2.1 17.3 2.6 83 2.6 48 0 80-0.7 83.4-1.7l5.6-1.8c0-114.7-0.3-124.2-2.5-126.4-2.3-2.2-14.2-2.6-85.9-2.6-73.4 0-83.7 0.3-86.1 2.7-1.6 1.5-2.8 2.9-2.8 3zm222.8-1.6c-2.5 3.6-2.7 10.9-2.2 63.6 0.6 57.1 0.7 59.5 4 62 3 2.3 15.7 2.6 91.2 2.7 48.2 0 89.5-0.4 91.6-0.8l3.9-0.9c0-120.3-0.4-129.1-2.6-129.8-1.4-0.5-43.2-0.9-92.9-0.9h-90.2zm-677 206.9l0.3 33.3c11.4 24.4 15.8 30.8 22.5 37.3 5.1 4.9 11.2 10.4 13.6 12.2 2.4 1.8 6.6 4.5 9.5 6 2.8 1.4 8.6 3.9 12.9 5.4 4.2 1.5 15.4 3.5 24.9 4.5 11.1 1.1 138.6 1.5 361.2 1.2 322.9-0.5 344.6-0.7 354.3-3.5 5.7-1.7 14.6-5.1 19.8-7.7 5.2-2.5 14.5-9.4 20.6-15.2 8.2-7.7 13.3-14.6 18.7-25l7.4-14.4c-0.3-52-0.6-67.3-0.8-67.5-0.2-0.2-194.5-0.6-431.7-0.9-237.3-0.2-431.9-0.1-432.5 0.3-0.5 0.4-0.9 15.7-0.7 34zm228.2-739.4c2.8 0.4 8.2 2.1 12 3.7 3.8 1.6 9.2 5.3 12.1 8.1 2.8 2.8 6.7 8.1 8.5 11.9 2.4 4.6 3.4 10.3 3.4 18 0 9.5-0.8 12.4-5.4 19.7-2.9 4.8-8.3 10.7-12 13.3-3.6 2.5-8.7 5.4-11.3 6.4-2.6 1-9 1.8-14.2 1.8-5.4 0-11.9-1.2-15-2.8-3.1-1.6-8.2-4.9-11.4-7.3-3.1-2.5-7.6-8.4-10-13.1-3.5-7.1-4.2-10.6-3.7-19.9 0.4-8.9 1.6-13 5.7-19.7 2.8-4.6 8.3-10.6 12-13.2 3.9-2.8 10.7-5.5 15.5-6.3 4.8-0.8 11-1 13.8-0.6zm209.8 0c3.8 0.5 9.6 2.2 12.9 3.9 3.3 1.7 8.5 5.6 11.6 8.8 3 3.1 6.7 8.8 8.3 12.6 1.5 3.8 2.8 11.1 2.8 16.4 0.1 5.8-1.1 12-3.1 16.1-1.8 3.7-6.5 9.7-10.5 13.3-4.1 3.7-10.1 7.8-13.4 9.3-3.3 1.4-10.4 2.5-15.9 2.5-5.9 0-12.6-1.3-16.8-3.2-3.7-1.8-9.3-5.8-12.3-9-3.1-3.2-6.8-8.9-8.5-12.7-1.6-3.8-2.9-11.1-2.9-16.3 0-5.3 1.3-12.6 3-16.4 1.6-3.8 5-9.1 7.5-11.7 2.6-2.7 7-6.3 9.8-8.1 2.8-1.8 8.7-4 12.9-4.9 4.3-0.8 10.8-1.1 14.6-0.6zm203 0.4c6.5 0 12.8 1.2 17.2 3.3 3.8 1.8 9.8 6.5 13.3 10.3 4.2 4.6 7.4 10.4 9.3 16.9 2.2 8 2.4 11.5 0.9 18.5-1.1 4.7-4.5 12.1-7.7 16.3-3.6 4.9-9.1 9.5-15.1 12.5-7 3.6-11.8 4.8-19.2 4.8-5.4-0.1-12-1-14.6-2.2-2.6-1.1-7.3-3.8-10.3-6-3.1-2.1-5.2-4.7-4.8-5.6 0.5-1-0.3-2.1-1.7-2.6-1.4-0.5-4.1-4.2-6-8.2-2-4.3-3.4-11-3.4-16.3 0-5 1.1-12.1 2.5-15.9 1.4-3.8 3.4-6.9 4.3-6.9 1 0 2.7-2.1 3.9-4.6 1.3-2.8 5.9-6.5 11.6-9.5 7.3-3.7 11.8-4.8 19.8-4.8z"/>
</svg>